<mxfile host="Electron" modified="2024-10-25T21:05:48.502Z" agent="Mozilla/5.0 (Windows NT 10.0; Win64; x64) AppleWebKit/537.36 (KHTML, like Gecko) draw.io/24.4.0 Chrome/120.0.6099.109 Electron/28.1.0 Safari/537.36" etag="6JkQAUC7eGLrWswO9Uz7" version="24.4.0" type="device">
  <diagram name="Page-1" id="jCt6n6mwtqALYH4nxdZ-">
    <mxGraphModel dx="5571" dy="2189" grid="1" gridSize="10" guides="1" tooltips="1" connect="1" arrows="1" fold="1" page="1" pageScale="1" pageWidth="1800" pageHeight="800" math="0" shadow="0">
      <root>
        <mxCell id="0" />
        <mxCell id="1" parent="0" />
        <mxCell id="cDNC4XxZshDC0vtv6Qum-2" value="«interface»&lt;br&gt;&lt;b&gt;CriticalSystem&lt;/b&gt;" style="html=1;whiteSpace=wrap;" vertex="1" parent="1">
          <mxGeometry x="-1250" y="76" width="140" height="40" as="geometry" />
        </mxCell>
        <mxCell id="cDNC4XxZshDC0vtv6Qum-10" style="edgeStyle=orthogonalEdgeStyle;rounded=0;orthogonalLoop=1;jettySize=auto;html=1;exitX=0.5;exitY=0;exitDx=0;exitDy=0;entryX=0.5;entryY=1;entryDx=0;entryDy=0;" edge="1" parent="1" source="cDNC4XxZshDC0vtv6Qum-5" target="cDNC4XxZshDC0vtv6Qum-2">
          <mxGeometry relative="1" as="geometry" />
        </mxCell>
        <mxCell id="cDNC4XxZshDC0vtv6Qum-5" value="&lt;b&gt;&lt;i&gt;Motor&lt;/i&gt;&lt;/b&gt;" style="html=1;whiteSpace=wrap;" vertex="1" parent="1">
          <mxGeometry x="-1130" y="156" width="170" height="40" as="geometry" />
        </mxCell>
        <mxCell id="cDNC4XxZshDC0vtv6Qum-29" style="edgeStyle=orthogonalEdgeStyle;rounded=0;orthogonalLoop=1;jettySize=auto;html=1;exitX=0.5;exitY=0;exitDx=0;exitDy=0;" edge="1" parent="1" source="cDNC4XxZshDC0vtv6Qum-14">
          <mxGeometry relative="1" as="geometry">
            <mxPoint x="-1039.904761904762" y="276" as="targetPoint" />
          </mxGeometry>
        </mxCell>
        <mxCell id="cDNC4XxZshDC0vtv6Qum-14" value="4wheelDrive" style="swimlane;fontStyle=1;align=center;verticalAlign=top;childLayout=stackLayout;horizontal=1;startSize=26;horizontalStack=0;resizeParent=1;resizeParentMax=0;resizeLast=0;collapsible=1;marginBottom=0;whiteSpace=wrap;html=1;" vertex="1" parent="1">
          <mxGeometry x="-1120" y="436" width="160" height="86" as="geometry" />
        </mxCell>
        <mxCell id="cDNC4XxZshDC0vtv6Qum-15" value="+ field: type" style="text;strokeColor=none;fillColor=none;align=left;verticalAlign=top;spacingLeft=4;spacingRight=4;overflow=hidden;rotatable=0;points=[[0,0.5],[1,0.5]];portConstraint=eastwest;whiteSpace=wrap;html=1;" vertex="1" parent="cDNC4XxZshDC0vtv6Qum-14">
          <mxGeometry y="26" width="160" height="26" as="geometry" />
        </mxCell>
        <mxCell id="cDNC4XxZshDC0vtv6Qum-16" value="" style="line;strokeWidth=1;fillColor=none;align=left;verticalAlign=middle;spacingTop=-1;spacingLeft=3;spacingRight=3;rotatable=0;labelPosition=right;points=[];portConstraint=eastwest;strokeColor=inherit;" vertex="1" parent="cDNC4XxZshDC0vtv6Qum-14">
          <mxGeometry y="52" width="160" height="8" as="geometry" />
        </mxCell>
        <mxCell id="cDNC4XxZshDC0vtv6Qum-17" value="+ method(type): type" style="text;strokeColor=none;fillColor=none;align=left;verticalAlign=top;spacingLeft=4;spacingRight=4;overflow=hidden;rotatable=0;points=[[0,0.5],[1,0.5]];portConstraint=eastwest;whiteSpace=wrap;html=1;" vertex="1" parent="cDNC4XxZshDC0vtv6Qum-14">
          <mxGeometry y="60" width="160" height="26" as="geometry" />
        </mxCell>
        <mxCell id="cDNC4XxZshDC0vtv6Qum-25" style="edgeStyle=orthogonalEdgeStyle;rounded=0;orthogonalLoop=1;jettySize=auto;html=1;exitX=0.5;exitY=0;exitDx=0;exitDy=0;endArrow=none;endFill=0;" edge="1" parent="1" source="cDNC4XxZshDC0vtv6Qum-18">
          <mxGeometry relative="1" as="geometry">
            <mxPoint x="-1040" y="396" as="targetPoint" />
            <Array as="points">
              <mxPoint x="-840" y="396" />
              <mxPoint x="-910" y="396" />
            </Array>
          </mxGeometry>
        </mxCell>
        <mxCell id="cDNC4XxZshDC0vtv6Qum-18" value="&lt;div&gt;2wheelDrive&lt;/div&gt;" style="swimlane;fontStyle=1;align=center;verticalAlign=top;childLayout=stackLayout;horizontal=1;startSize=26;horizontalStack=0;resizeParent=1;resizeParentMax=0;resizeLast=0;collapsible=1;marginBottom=0;whiteSpace=wrap;html=1;" vertex="1" parent="1">
          <mxGeometry x="-910" y="436" width="150" height="86" as="geometry" />
        </mxCell>
        <mxCell id="cDNC4XxZshDC0vtv6Qum-19" value="+ field: type" style="text;strokeColor=none;fillColor=none;align=left;verticalAlign=top;spacingLeft=4;spacingRight=4;overflow=hidden;rotatable=0;points=[[0,0.5],[1,0.5]];portConstraint=eastwest;whiteSpace=wrap;html=1;" vertex="1" parent="cDNC4XxZshDC0vtv6Qum-18">
          <mxGeometry y="26" width="150" height="26" as="geometry" />
        </mxCell>
        <mxCell id="cDNC4XxZshDC0vtv6Qum-20" value="" style="line;strokeWidth=1;fillColor=none;align=left;verticalAlign=middle;spacingTop=-1;spacingLeft=3;spacingRight=3;rotatable=0;labelPosition=right;points=[];portConstraint=eastwest;strokeColor=inherit;" vertex="1" parent="cDNC4XxZshDC0vtv6Qum-18">
          <mxGeometry y="52" width="150" height="8" as="geometry" />
        </mxCell>
        <mxCell id="cDNC4XxZshDC0vtv6Qum-21" value="+ method(type): type" style="text;strokeColor=none;fillColor=none;align=left;verticalAlign=top;spacingLeft=4;spacingRight=4;overflow=hidden;rotatable=0;points=[[0,0.5],[1,0.5]];portConstraint=eastwest;whiteSpace=wrap;html=1;" vertex="1" parent="cDNC4XxZshDC0vtv6Qum-18">
          <mxGeometry y="60" width="150" height="26" as="geometry" />
        </mxCell>
        <mxCell id="cDNC4XxZshDC0vtv6Qum-22" value="&lt;div style=&quot;font-size: 11px;&quot;&gt;&lt;font style=&quot;font-size: 11px;&quot;&gt;+ powerSource : PowerSource&lt;/font&gt;&lt;/div&gt;&lt;div style=&quot;font-size: 11px;&quot;&gt;&lt;font style=&quot;font-size: 11px;&quot;&gt;&lt;br&gt;&lt;/font&gt;&lt;/div&gt;&lt;div style=&quot;font-size: 11px;&quot;&gt;&lt;font style=&quot;font-size: 11px;&quot;&gt;&lt;br&gt;&lt;/font&gt;&lt;/div&gt;&lt;div style=&quot;font-size: 11px;&quot;&gt;&lt;font style=&quot;font-size: 11px;&quot;&gt;&lt;br&gt;&lt;/font&gt;&lt;/div&gt;&lt;div style=&quot;font-size: 11px;&quot;&gt;&lt;font style=&quot;font-size: 11px;&quot;&gt;&lt;br&gt;&lt;/font&gt;&lt;/div&gt;&lt;font style=&quot;font-size: 11px;&quot;&gt;# void engage()&lt;/font&gt;&lt;div style=&quot;font-size: 11px;&quot;&gt;&lt;font style=&quot;font-size: 11px;&quot;&gt;# void disengage()&lt;br&gt;&lt;/font&gt;&lt;div style=&quot;&quot;&gt;&lt;font style=&quot;font-size: 11px;&quot;&gt;# void accelForward()&lt;/font&gt;&lt;/div&gt;&lt;div style=&quot;&quot;&gt;&lt;font style=&quot;font-size: 11px;&quot;&gt;# void accelBackward()&lt;/font&gt;&lt;/div&gt;&lt;/div&gt;" style="html=1;whiteSpace=wrap;align=left;verticalAlign=top;spacing=1;" vertex="1" parent="1">
          <mxGeometry x="-1130" y="196" width="170" height="140" as="geometry" />
        </mxCell>
        <mxCell id="cDNC4XxZshDC0vtv6Qum-27" value="" style="ellipse;html=1;shape=endState;fillColor=#000000;strokeColor=#ff0000;" vertex="1" parent="1">
          <mxGeometry x="-1600" y="36" width="30" height="30" as="geometry" />
        </mxCell>
        <mxCell id="cDNC4XxZshDC0vtv6Qum-32" value="" style="line;strokeWidth=1;fillColor=none;align=left;verticalAlign=middle;spacingTop=-1;spacingLeft=3;spacingRight=3;rotatable=0;labelPosition=right;points=[];portConstraint=eastwest;strokeColor=inherit;" vertex="1" parent="1">
          <mxGeometry x="-1130" y="236" width="170" height="8" as="geometry" />
        </mxCell>
        <mxCell id="cDNC4XxZshDC0vtv6Qum-33" value="&lt;i&gt;PowerSource&lt;/i&gt;" style="swimlane;fontStyle=1;align=center;verticalAlign=top;childLayout=stackLayout;horizontal=1;startSize=26;horizontalStack=0;resizeParent=1;resizeParentMax=0;resizeLast=0;collapsible=1;marginBottom=0;whiteSpace=wrap;html=1;" vertex="1" parent="1">
          <mxGeometry x="-720" y="158" width="180" height="170" as="geometry" />
        </mxCell>
        <mxCell id="cDNC4XxZshDC0vtv6Qum-34" value="&lt;div&gt;+ horsePower : float&lt;/div&gt;+ efficiencyPercent : float" style="text;strokeColor=none;fillColor=none;align=left;verticalAlign=top;spacingLeft=4;spacingRight=4;overflow=hidden;rotatable=0;points=[[0,0.5],[1,0.5]];portConstraint=eastwest;whiteSpace=wrap;html=1;" vertex="1" parent="cDNC4XxZshDC0vtv6Qum-33">
          <mxGeometry y="26" width="180" height="74" as="geometry" />
        </mxCell>
        <mxCell id="cDNC4XxZshDC0vtv6Qum-35" value="" style="line;strokeWidth=1;fillColor=none;align=left;verticalAlign=middle;spacingTop=-1;spacingLeft=3;spacingRight=3;rotatable=0;labelPosition=right;points=[];portConstraint=eastwest;strokeColor=inherit;" vertex="1" parent="cDNC4XxZshDC0vtv6Qum-33">
          <mxGeometry y="100" width="180" height="8" as="geometry" />
        </mxCell>
        <mxCell id="cDNC4XxZshDC0vtv6Qum-36" value="&lt;i&gt;# supplyPower()&lt;/i&gt;" style="text;strokeColor=none;fillColor=none;align=left;verticalAlign=top;spacingLeft=4;spacingRight=4;overflow=hidden;rotatable=0;points=[[0,0.5],[1,0.5]];portConstraint=eastwest;whiteSpace=wrap;html=1;" vertex="1" parent="cDNC4XxZshDC0vtv6Qum-33">
          <mxGeometry y="108" width="180" height="62" as="geometry" />
        </mxCell>
        <mxCell id="cDNC4XxZshDC0vtv6Qum-69" style="edgeStyle=orthogonalEdgeStyle;rounded=0;orthogonalLoop=1;jettySize=auto;html=1;exitX=0.5;exitY=0;exitDx=0;exitDy=0;" edge="1" parent="1" source="cDNC4XxZshDC0vtv6Qum-41">
          <mxGeometry relative="1" as="geometry">
            <mxPoint x="-600" y="336" as="targetPoint" />
          </mxGeometry>
        </mxCell>
        <mxCell id="cDNC4XxZshDC0vtv6Qum-41" value="&lt;i&gt;Gas&lt;/i&gt;&lt;div&gt;&lt;br&gt;&lt;/div&gt;" style="swimlane;fontStyle=1;align=center;verticalAlign=top;childLayout=stackLayout;horizontal=1;startSize=26;horizontalStack=0;resizeParent=1;resizeParentMax=0;resizeLast=0;collapsible=1;marginBottom=0;whiteSpace=wrap;html=1;" vertex="1" parent="1">
          <mxGeometry x="-440" y="436" width="140" height="110" as="geometry" />
        </mxCell>
        <mxCell id="cDNC4XxZshDC0vtv6Qum-42" value="+ cylinderCount : int" style="text;strokeColor=none;fillColor=none;align=left;verticalAlign=top;spacingLeft=4;spacingRight=4;overflow=hidden;rotatable=0;points=[[0,0.5],[1,0.5]];portConstraint=eastwest;whiteSpace=wrap;html=1;" vertex="1" parent="cDNC4XxZshDC0vtv6Qum-41">
          <mxGeometry y="26" width="140" height="44" as="geometry" />
        </mxCell>
        <mxCell id="cDNC4XxZshDC0vtv6Qum-43" value="" style="line;strokeWidth=1;fillColor=none;align=left;verticalAlign=middle;spacingTop=-1;spacingLeft=3;spacingRight=3;rotatable=0;labelPosition=right;points=[];portConstraint=eastwest;strokeColor=inherit;" vertex="1" parent="cDNC4XxZshDC0vtv6Qum-41">
          <mxGeometry y="70" width="140" height="8" as="geometry" />
        </mxCell>
        <mxCell id="cDNC4XxZshDC0vtv6Qum-44" value="# supplyPower()" style="text;strokeColor=none;fillColor=none;align=left;verticalAlign=top;spacingLeft=4;spacingRight=4;overflow=hidden;rotatable=0;points=[[0,0.5],[1,0.5]];portConstraint=eastwest;whiteSpace=wrap;html=1;" vertex="1" parent="cDNC4XxZshDC0vtv6Qum-41">
          <mxGeometry y="78" width="140" height="32" as="geometry" />
        </mxCell>
        <mxCell id="cDNC4XxZshDC0vtv6Qum-64" style="edgeStyle=orthogonalEdgeStyle;rounded=0;orthogonalLoop=1;jettySize=auto;html=1;exitX=0.5;exitY=0;exitDx=0;exitDy=0;endArrow=none;endFill=0;" edge="1" parent="1" source="cDNC4XxZshDC0vtv6Qum-45">
          <mxGeometry relative="1" as="geometry">
            <mxPoint x="-600" y="396" as="targetPoint" />
          </mxGeometry>
        </mxCell>
        <mxCell id="cDNC4XxZshDC0vtv6Qum-45" value="Electric" style="swimlane;fontStyle=1;align=center;verticalAlign=top;childLayout=stackLayout;horizontal=1;startSize=26;horizontalStack=0;resizeParent=1;resizeParentMax=0;resizeLast=0;collapsible=1;marginBottom=0;whiteSpace=wrap;html=1;" vertex="1" parent="1">
          <mxGeometry x="-680" y="436" width="160" height="128" as="geometry" />
        </mxCell>
        <mxCell id="cDNC4XxZshDC0vtv6Qum-46" value="+ batteryCount : int&lt;div&gt;+ batteryDecay : float&lt;/div&gt;&lt;div&gt;&lt;br&gt;&lt;/div&gt;" style="text;strokeColor=none;fillColor=none;align=left;verticalAlign=top;spacingLeft=4;spacingRight=4;overflow=hidden;rotatable=0;points=[[0,0.5],[1,0.5]];portConstraint=eastwest;whiteSpace=wrap;html=1;" vertex="1" parent="cDNC4XxZshDC0vtv6Qum-45">
          <mxGeometry y="26" width="160" height="54" as="geometry" />
        </mxCell>
        <mxCell id="cDNC4XxZshDC0vtv6Qum-47" value="" style="line;strokeWidth=1;fillColor=none;align=left;verticalAlign=middle;spacingTop=-1;spacingLeft=3;spacingRight=3;rotatable=0;labelPosition=right;points=[];portConstraint=eastwest;strokeColor=inherit;" vertex="1" parent="cDNC4XxZshDC0vtv6Qum-45">
          <mxGeometry y="80" width="160" height="8" as="geometry" />
        </mxCell>
        <mxCell id="cDNC4XxZshDC0vtv6Qum-48" value="+ electric()&lt;div&gt;# supplyPower&lt;/div&gt;" style="text;strokeColor=none;fillColor=none;align=left;verticalAlign=top;spacingLeft=4;spacingRight=4;overflow=hidden;rotatable=0;points=[[0,0.5],[1,0.5]];portConstraint=eastwest;whiteSpace=wrap;html=1;" vertex="1" parent="cDNC4XxZshDC0vtv6Qum-45">
          <mxGeometry y="88" width="160" height="40" as="geometry" />
        </mxCell>
        <mxCell id="cDNC4XxZshDC0vtv6Qum-61" style="edgeStyle=orthogonalEdgeStyle;rounded=0;orthogonalLoop=1;jettySize=auto;html=1;exitX=0.5;exitY=0;exitDx=0;exitDy=0;entryX=0.572;entryY=1;entryDx=0;entryDy=0;entryPerimeter=0;endArrow=none;endFill=0;" edge="1" parent="1" source="cDNC4XxZshDC0vtv6Qum-49">
          <mxGeometry relative="1" as="geometry">
            <mxPoint x="-359.9200000000001" y="556" as="targetPoint" />
          </mxGeometry>
        </mxCell>
        <mxCell id="cDNC4XxZshDC0vtv6Qum-49" value="Benzine" style="swimlane;fontStyle=1;align=center;verticalAlign=top;childLayout=stackLayout;horizontal=1;startSize=26;horizontalStack=0;resizeParent=1;resizeParentMax=0;resizeLast=0;collapsible=1;marginBottom=0;whiteSpace=wrap;html=1;" vertex="1" parent="1">
          <mxGeometry x="-440" y="596" width="160" height="86" as="geometry" />
        </mxCell>
        <mxCell id="cDNC4XxZshDC0vtv6Qum-50" value="+ field: type" style="text;strokeColor=none;fillColor=none;align=left;verticalAlign=top;spacingLeft=4;spacingRight=4;overflow=hidden;rotatable=0;points=[[0,0.5],[1,0.5]];portConstraint=eastwest;whiteSpace=wrap;html=1;" vertex="1" parent="cDNC4XxZshDC0vtv6Qum-49">
          <mxGeometry y="26" width="160" height="26" as="geometry" />
        </mxCell>
        <mxCell id="cDNC4XxZshDC0vtv6Qum-51" value="" style="line;strokeWidth=1;fillColor=none;align=left;verticalAlign=middle;spacingTop=-1;spacingLeft=3;spacingRight=3;rotatable=0;labelPosition=right;points=[];portConstraint=eastwest;strokeColor=inherit;" vertex="1" parent="cDNC4XxZshDC0vtv6Qum-49">
          <mxGeometry y="52" width="160" height="8" as="geometry" />
        </mxCell>
        <mxCell id="cDNC4XxZshDC0vtv6Qum-52" value="+ benzine()" style="text;strokeColor=none;fillColor=none;align=left;verticalAlign=top;spacingLeft=4;spacingRight=4;overflow=hidden;rotatable=0;points=[[0,0.5],[1,0.5]];portConstraint=eastwest;whiteSpace=wrap;html=1;" vertex="1" parent="cDNC4XxZshDC0vtv6Qum-49">
          <mxGeometry y="60" width="160" height="26" as="geometry" />
        </mxCell>
        <mxCell id="cDNC4XxZshDC0vtv6Qum-62" style="edgeStyle=orthogonalEdgeStyle;rounded=0;orthogonalLoop=1;jettySize=auto;html=1;exitX=0.5;exitY=0;exitDx=0;exitDy=0;" edge="1" parent="1" source="cDNC4XxZshDC0vtv6Qum-57">
          <mxGeometry relative="1" as="geometry">
            <mxPoint x="-360" y="546" as="targetPoint" />
          </mxGeometry>
        </mxCell>
        <mxCell id="cDNC4XxZshDC0vtv6Qum-57" value="Diesel" style="swimlane;fontStyle=1;align=center;verticalAlign=top;childLayout=stackLayout;horizontal=1;startSize=26;horizontalStack=0;resizeParent=1;resizeParentMax=0;resizeLast=0;collapsible=1;marginBottom=0;whiteSpace=wrap;html=1;" vertex="1" parent="1">
          <mxGeometry x="-220" y="596" width="160" height="86" as="geometry" />
        </mxCell>
        <mxCell id="cDNC4XxZshDC0vtv6Qum-58" value="+ field: type" style="text;strokeColor=none;fillColor=none;align=left;verticalAlign=top;spacingLeft=4;spacingRight=4;overflow=hidden;rotatable=0;points=[[0,0.5],[1,0.5]];portConstraint=eastwest;whiteSpace=wrap;html=1;" vertex="1" parent="cDNC4XxZshDC0vtv6Qum-57">
          <mxGeometry y="26" width="160" height="26" as="geometry" />
        </mxCell>
        <mxCell id="cDNC4XxZshDC0vtv6Qum-59" value="" style="line;strokeWidth=1;fillColor=none;align=left;verticalAlign=middle;spacingTop=-1;spacingLeft=3;spacingRight=3;rotatable=0;labelPosition=right;points=[];portConstraint=eastwest;strokeColor=inherit;" vertex="1" parent="cDNC4XxZshDC0vtv6Qum-57">
          <mxGeometry y="52" width="160" height="8" as="geometry" />
        </mxCell>
        <mxCell id="cDNC4XxZshDC0vtv6Qum-60" value="+ diesel()" style="text;strokeColor=none;fillColor=none;align=left;verticalAlign=top;spacingLeft=4;spacingRight=4;overflow=hidden;rotatable=0;points=[[0,0.5],[1,0.5]];portConstraint=eastwest;whiteSpace=wrap;html=1;" vertex="1" parent="cDNC4XxZshDC0vtv6Qum-57">
          <mxGeometry y="60" width="160" height="26" as="geometry" />
        </mxCell>
        <mxCell id="cDNC4XxZshDC0vtv6Qum-65" value="" style="endArrow=diamondThin;endFill=0;endSize=24;html=1;rounded=0;entryX=0.991;entryY=0.005;entryDx=0;entryDy=0;entryPerimeter=0;" edge="1" parent="1">
          <mxGeometry width="160" relative="1" as="geometry">
            <mxPoint x="-720" y="286" as="sourcePoint" />
            <mxPoint x="-961.5299999999997" y="286.00000000000006" as="targetPoint" />
          </mxGeometry>
        </mxCell>
        <mxCell id="cDNC4XxZshDC0vtv6Qum-70" value="" style="swimlane;startSize=0;fillColor=#d80073;fontColor=#ffffff;strokeColor=#A50040;" vertex="1" parent="1">
          <mxGeometry x="-570" y="564" width="530" height="200" as="geometry" />
        </mxCell>
        <mxCell id="cDNC4XxZshDC0vtv6Qum-75" style="edgeStyle=orthogonalEdgeStyle;rounded=0;orthogonalLoop=1;jettySize=auto;html=1;exitX=0.5;exitY=0;exitDx=0;exitDy=0;" edge="1" parent="1" source="cDNC4XxZshDC0vtv6Qum-71" target="cDNC4XxZshDC0vtv6Qum-2">
          <mxGeometry relative="1" as="geometry" />
        </mxCell>
        <mxCell id="cDNC4XxZshDC0vtv6Qum-71" value="&lt;i&gt;BreakSystem&lt;/i&gt;" style="swimlane;fontStyle=1;align=center;verticalAlign=top;childLayout=stackLayout;horizontal=1;startSize=26;horizontalStack=0;resizeParent=1;resizeParentMax=0;resizeLast=0;collapsible=1;marginBottom=0;whiteSpace=wrap;html=1;" vertex="1" parent="1">
          <mxGeometry x="-1390" y="156" width="160" height="120" as="geometry" />
        </mxCell>
        <mxCell id="cDNC4XxZshDC0vtv6Qum-72" value="&lt;div&gt;&lt;br&gt;&lt;/div&gt;" style="text;strokeColor=none;fillColor=none;align=left;verticalAlign=top;spacingLeft=4;spacingRight=4;overflow=hidden;rotatable=0;points=[[0,0.5],[1,0.5]];portConstraint=eastwest;whiteSpace=wrap;html=1;" vertex="1" parent="cDNC4XxZshDC0vtv6Qum-71">
          <mxGeometry y="26" width="160" height="14" as="geometry" />
        </mxCell>
        <mxCell id="cDNC4XxZshDC0vtv6Qum-73" value="" style="line;strokeWidth=1;fillColor=none;align=left;verticalAlign=middle;spacingTop=-1;spacingLeft=3;spacingRight=3;rotatable=0;labelPosition=right;points=[];portConstraint=eastwest;strokeColor=inherit;" vertex="1" parent="cDNC4XxZshDC0vtv6Qum-71">
          <mxGeometry y="40" width="160" height="8" as="geometry" />
        </mxCell>
        <mxCell id="cDNC4XxZshDC0vtv6Qum-74" value="&lt;i&gt;# void brake()&lt;/i&gt;&lt;div&gt;&lt;i&gt;+ &lt;/i&gt;getBrakeInfo()&lt;/div&gt;" style="text;strokeColor=none;fillColor=none;align=left;verticalAlign=top;spacingLeft=4;spacingRight=4;overflow=hidden;rotatable=0;points=[[0,0.5],[1,0.5]];portConstraint=eastwest;whiteSpace=wrap;html=1;" vertex="1" parent="cDNC4XxZshDC0vtv6Qum-71">
          <mxGeometry y="48" width="160" height="72" as="geometry" />
        </mxCell>
        <mxCell id="cDNC4XxZshDC0vtv6Qum-80" style="edgeStyle=orthogonalEdgeStyle;rounded=0;orthogonalLoop=1;jettySize=auto;html=1;exitX=0.5;exitY=0;exitDx=0;exitDy=0;" edge="1" parent="1" source="cDNC4XxZshDC0vtv6Qum-76">
          <mxGeometry relative="1" as="geometry">
            <mxPoint x="-1319.857142857143" y="286" as="targetPoint" />
          </mxGeometry>
        </mxCell>
        <mxCell id="cDNC4XxZshDC0vtv6Qum-76" value="TrommolRemmen" style="swimlane;fontStyle=1;align=center;verticalAlign=top;childLayout=stackLayout;horizontal=1;startSize=26;horizontalStack=0;resizeParent=1;resizeParentMax=0;resizeLast=0;collapsible=1;marginBottom=0;whiteSpace=wrap;html=1;" vertex="1" parent="1">
          <mxGeometry x="-1400" y="436" width="160" height="60" as="geometry" />
        </mxCell>
        <mxCell id="cDNC4XxZshDC0vtv6Qum-78" value="" style="line;strokeWidth=1;fillColor=none;align=left;verticalAlign=middle;spacingTop=-1;spacingLeft=3;spacingRight=3;rotatable=0;labelPosition=right;points=[];portConstraint=eastwest;strokeColor=inherit;" vertex="1" parent="cDNC4XxZshDC0vtv6Qum-76">
          <mxGeometry y="26" width="160" height="8" as="geometry" />
        </mxCell>
        <mxCell id="cDNC4XxZshDC0vtv6Qum-79" value="# void brake()" style="text;strokeColor=none;fillColor=none;align=left;verticalAlign=top;spacingLeft=4;spacingRight=4;overflow=hidden;rotatable=0;points=[[0,0.5],[1,0.5]];portConstraint=eastwest;whiteSpace=wrap;html=1;" vertex="1" parent="cDNC4XxZshDC0vtv6Qum-76">
          <mxGeometry y="34" width="160" height="26" as="geometry" />
        </mxCell>
        <mxCell id="cDNC4XxZshDC0vtv6Qum-89" style="edgeStyle=orthogonalEdgeStyle;rounded=0;orthogonalLoop=1;jettySize=auto;html=1;exitX=0.5;exitY=0;exitDx=0;exitDy=0;endArrow=none;endFill=0;" edge="1" parent="1" source="cDNC4XxZshDC0vtv6Qum-81">
          <mxGeometry relative="1" as="geometry">
            <mxPoint x="-1320" y="376" as="targetPoint" />
          </mxGeometry>
        </mxCell>
        <mxCell id="cDNC4XxZshDC0vtv6Qum-81" value="CarbonCompositeBrakes" style="swimlane;fontStyle=1;align=center;verticalAlign=top;childLayout=stackLayout;horizontal=1;startSize=26;horizontalStack=0;resizeParent=1;resizeParentMax=0;resizeLast=0;collapsible=1;marginBottom=0;whiteSpace=wrap;html=1;" vertex="1" parent="1">
          <mxGeometry x="-1580" y="436" width="160" height="60" as="geometry" />
        </mxCell>
        <mxCell id="cDNC4XxZshDC0vtv6Qum-83" value="" style="line;strokeWidth=1;fillColor=none;align=left;verticalAlign=middle;spacingTop=-1;spacingLeft=3;spacingRight=3;rotatable=0;labelPosition=right;points=[];portConstraint=eastwest;strokeColor=inherit;" vertex="1" parent="cDNC4XxZshDC0vtv6Qum-81">
          <mxGeometry y="26" width="160" height="8" as="geometry" />
        </mxCell>
        <mxCell id="cDNC4XxZshDC0vtv6Qum-84" value="# void brake()" style="text;strokeColor=none;fillColor=none;align=left;verticalAlign=top;spacingLeft=4;spacingRight=4;overflow=hidden;rotatable=0;points=[[0,0.5],[1,0.5]];portConstraint=eastwest;whiteSpace=wrap;html=1;" vertex="1" parent="cDNC4XxZshDC0vtv6Qum-81">
          <mxGeometry y="34" width="160" height="26" as="geometry" />
        </mxCell>
        <mxCell id="cDNC4XxZshDC0vtv6Qum-90" style="edgeStyle=orthogonalEdgeStyle;rounded=0;orthogonalLoop=1;jettySize=auto;html=1;exitX=0.5;exitY=0;exitDx=0;exitDy=0;endArrow=none;endFill=0;" edge="1" parent="1" source="cDNC4XxZshDC0vtv6Qum-85">
          <mxGeometry relative="1" as="geometry">
            <mxPoint x="-1320" y="376" as="targetPoint" />
          </mxGeometry>
        </mxCell>
        <mxCell id="cDNC4XxZshDC0vtv6Qum-85" value="DiskABSBrakes" style="swimlane;fontStyle=1;align=center;verticalAlign=top;childLayout=stackLayout;horizontal=1;startSize=26;horizontalStack=0;resizeParent=1;resizeParentMax=0;resizeLast=0;collapsible=1;marginBottom=0;whiteSpace=wrap;html=1;" vertex="1" parent="1">
          <mxGeometry x="-1760" y="436" width="160" height="70" as="geometry" />
        </mxCell>
        <mxCell id="cDNC4XxZshDC0vtv6Qum-87" value="" style="line;strokeWidth=1;fillColor=none;align=left;verticalAlign=middle;spacingTop=-1;spacingLeft=3;spacingRight=3;rotatable=0;labelPosition=right;points=[];portConstraint=eastwest;strokeColor=inherit;" vertex="1" parent="cDNC4XxZshDC0vtv6Qum-85">
          <mxGeometry y="26" width="160" height="8" as="geometry" />
        </mxCell>
        <mxCell id="cDNC4XxZshDC0vtv6Qum-88" value="# void brake()&lt;div&gt;#&amp;nbsp; void ABS()&lt;/div&gt;" style="text;strokeColor=none;fillColor=none;align=left;verticalAlign=top;spacingLeft=4;spacingRight=4;overflow=hidden;rotatable=0;points=[[0,0.5],[1,0.5]];portConstraint=eastwest;whiteSpace=wrap;html=1;" vertex="1" parent="cDNC4XxZshDC0vtv6Qum-85">
          <mxGeometry y="34" width="160" height="36" as="geometry" />
        </mxCell>
        <mxCell id="cDNC4XxZshDC0vtv6Qum-91" value="Klaus&lt;div&gt;1081582&lt;/div&gt;&lt;div&gt;Designpatterns 2024&lt;/div&gt;&lt;div&gt;&lt;br&gt;&lt;/div&gt;" style="text;html=1;align=center;verticalAlign=middle;whiteSpace=wrap;rounded=0;" vertex="1" parent="1">
          <mxGeometry x="-1740" y="81" width="60" height="30" as="geometry" />
        </mxCell>
      </root>
    </mxGraphModel>
  </diagram>
</mxfile>
